# xmcd
#
# Track frame offsets:
#	150
#	21630
#	45000
#
# Disc length: 806 seconds
#
# Revision: 0
# Processed by: cddbd v1.5PL3 Copyright (c) Steve Scherf et al.
# Submitted via: audiograbber 1.82.01
#
DISCID=1a032403
DTITLE=Peter Maffay - Freiheit, die ich meine
DYEAR=1900
DGENRE=
TTITLE0=Freiheit, die ich meine
TTITLE1=Kannst du das versteh
TTITLE2=Abgehaun
EXTD=
EXTT0=
EXTT1=
EXTT2=
PLAYORDER=
